# xmcd
#
# Track frame offsets:
#	182
#	12755
#	22917
#	35237
#	45467
#	60505
#	73610
#	85367
#	95865
#	108480
#	119142
#	130595
#	144242
#	157105
#	169570
#	183022
#	194755
#	210767
#	225237
#	236870
#	251205
#	261242
#	277085
#	289850
#
# Disc length: 4063 seconds
#
# Revision: 0
# Processed by: cddbd v1.4PL0 Copyright (c) Steve Scherf et al.
# Submitted via: EasyCDDAExtractor 4.6.9.1
#
DISCID=5d0fdd18
DTITLE=Connie Francis - Among My Souvenirs (the best of) CD2
DYEAR=1900
DGENRE=
TTITLE0=Heartaches By The Number
TTITLE1=I Walk The Line
TTITLE2=If You Ever Get Lonely
TTITLE3=I'm Movin'
TTITLE4=He Thinks I Still Care
TTITLE5=Tennessee Waltz
TTITLE6=Jealous Heart
TTITLE7=Oh, Lonesome Me
TTITLE8=Cold, Cold Heart
TTITLE9=Your Cheatin' Heart
TTITLE10=Four Walls
TTITLE11=She'll Have To Go
TTITLE12=I Can't Stop Loving You
TTITLE13=When The Boy In Your Arms
TTITLE14=Les Bicyclettes De Belsize
TTITLE15=Make It Easy On Yourself
TTITLE16=What The World Needs Now Is Love
TTITLE17=More
TTITLE18=Trains and Boats and Planes
TTITLE19=I Will Wait For You
TTITLE20=Walk On By
TTITLE21=Alfie
TTITLE22=Do You Know The Way To San Jose
TTITLE23=The Last Waltz
EXTD=
EXTT0=
EXTT1=
EXTT2=
EXTT3=
EXTT4=
EXTT5=
EXTT6=
EXTT7=
EXTT8=
EXTT9=
EXTT10=
EXTT11=
EXTT12=
EXTT13=
EXTT14=
EXTT15=
EXTT16=
EXTT17=
EXTT18=
EXTT19=
EXTT20=
EXTT21=
EXTT22=
EXTT23=
PLAYORDER=
